<svg xmlns="http://www.w3.org/2000/svg" viewBox="0 0 614.22 158.9"><defs><style>.cls-1{fill:#ddd;}</style></defs><title>bg1</title><g id="Слой_2" data-name="Слой 2"><g id="Layer_1" data-name="Layer 1"><path class="cls-1" d="M755.74,216.55c-2.52,11.54-15.67,18.15-27.46,17.43s-22.47-6.85-32.69-12.78-21-12-32.79-12.42c-13.28-.52-25.7,6.07-38.68,8.89-41,8.87-84.83-19.94-124.12-5.4-20.49,7.58-35,25.47-49.83,41.53s-32.87,31.9-54.69,32.93c-25.45,1.2-48.79-18.22-74.15-15.81-13.95,1.33-26.55,9.18-40.41,11.18-23.37,3.38-45.41-10-66.16-21.26s-46.06-20.93-67.22-10.47V127.88H761.76Z" transform="translate(-147.54 -127.88)"/></g></g></svg>